<svg xmlns="http://www.w3.org/2000/svg" width="1200" height="700" viewBox="0 0 1200 700">
<defs>
  <linearGradient id="bg" x1="0" y1="0" x2="1" y2="1">
    <stop offset="0%" stop-color="#f1fbf8"/>
    <stop offset="100%" stop-color="#d1f7ea"/>
  </linearGradient>
  <linearGradient id="body" x1="0" y1="0" x2="0" y2="1">
    <stop offset="0%" stop-color="#3d4654"/>
    <stop offset="100%" stop-color="#1e2630"/>
  </linearGradient>
  <linearGradient id="plate" x1="0" y1="0" x2="1" y2="1">
    <stop offset="0%" stop-color="#4c5565"/>
    <stop offset="100%" stop-color="#2c3542"/>
  </linearGradient>
  <filter id="shadow" x="-20%" y="-20%" width="140%" height="160%">
    <feDropShadow dx="0" dy="18" stdDeviation="22" flood-color="#0b1120" flood-opacity="0.22"/>
  </filter>
</defs>
<rect width="1200" height="700" rx="32" fill="url(#bg)"/>
<rect x="34" y="34" width="1132" height="632" rx="28" fill="white" fill-opacity="0.35"/>
<text x="78" y="84" font-size="15" font-family="Arial, sans-serif" fill="#334155" letter-spacing="3">ROYAL KLUDGE</text>
<rect x="78" y="102" width="34" height="34" rx="10" fill="#059669" fill-opacity="0.18" stroke="#059669" stroke-opacity="0.25"/>
<text x="95" y="124" text-anchor="middle" font-size="15" font-family="Arial, sans-serif" font-weight="700" fill="#1f2937">RK</text>
<text x="126" y="126" font-size="34" font-family="Arial, sans-serif" font-weight="700" fill="#111827">RK96</text>
<text x="78" y="164" font-size="18" font-family="Arial, sans-serif" fill="#475569">96% keyboard • KBcompare premium local image</text>
<g filter="url(#shadow)">
  <rect x="70" y="240" width="1060" height="260" rx="34" fill="url(#body)"/>
  <rect x="94" y="256" width="1012" height="208" rx="28" fill="url(#plate)"/>
<rect x="193.5" y="285" width="34.0" height="28" rx="7" fill="#059669" fill-opacity="0.96" stroke="#059669" stroke-opacity="0.12"/><rect x="234.5" y="285" width="34.0" height="28" rx="7" fill="#f8fafc" fill-opacity="0.96" stroke="#059669" stroke-opacity="0.12"/><rect x="275.5" y="285" width="34.0" height="28" rx="7" fill="#f8fafc" fill-opacity="0.96" stroke="#059669" stroke-opacity="0.12"/><rect x="316.5" y="285" width="34.0" height="28" rx="7" fill="#f8fafc" fill-opacity="0.96" stroke="#059669" stroke-opacity="0.12"/><rect x="357.5" y="285" width="34.0" height="28" rx="7" fill="#f8fafc" fill-opacity="0.96" stroke="#059669" stroke-opacity="0.12"/><rect x="398.5" y="285" width="34.0" height="28" rx="7" fill="#059669" fill-opacity="0.96" stroke="#059669" stroke-opacity="0.12"/><rect x="439.5" y="285" width="34.0" height="28" rx="7" fill="#f8fafc" fill-opacity="0.96" stroke="#059669" stroke-opacity="0.12"/><rect x="480.5" y="285" width="34.0" height="28" rx="7" fill="#f8fafc" fill-opacity="0.96" stroke="#059669" stroke-opacity="0.12"/><rect x="521.5" y="285" width="34.0" height="28" rx="7" fill="#f8fafc" fill-opacity="0.96" stroke="#059669" stroke-opacity="0.12"/><rect x="562.5" y="285" width="34.0" height="28" rx="7" fill="#f8fafc" fill-opacity="0.96" stroke="#059669" stroke-opacity="0.12"/><rect x="603.5" y="285" width="34.0" height="28" rx="7" fill="#059669" fill-opacity="0.96" stroke="#059669" stroke-opacity="0.12"/><rect x="644.5" y="285" width="34.0" height="28" rx="7" fill="#f8fafc" fill-opacity="0.96" stroke="#059669" stroke-opacity="0.12"/><rect x="685.5" y="285" width="34.0" height="28" rx="7" fill="#f8fafc" fill-opacity="0.96" stroke="#059669" stroke-opacity="0.12"/><rect x="726.5" y="285" width="34.0" height="28" rx="7" fill="#f8fafc" fill-opacity="0.96" stroke="#059669" stroke-opacity="0.12"/><rect x="767.5" y="285" width="34.0" height="28" rx="7" fill="#f8fafc" fill-opacity="0.96" stroke="#059669" stroke-opacity="0.12"/><rect x="808.5" y="285" width="34.0" height="28" rx="7" fill="#059669" fill-opacity="0.96" stroke="#059669" stroke-opacity="0.12"/><rect x="849.5" y="285" width="34.0" height="28" rx="7" fill="#f8fafc" fill-opacity="0.96" stroke="#059669" stroke-opacity="0.12"/><rect x="890.5" y="285" width="34.0" height="28" rx="7" fill="#f8fafc" fill-opacity="0.96" stroke="#059669" stroke-opacity="0.12"/><rect x="931.5" y="285" width="34.0" height="28" rx="7" fill="#f8fafc" fill-opacity="0.96" stroke="#059669" stroke-opacity="0.12"/><rect x="972.5" y="285" width="34.0" height="28" rx="7" fill="#f8fafc" fill-opacity="0.96" stroke="#059669" stroke-opacity="0.12"/><rect x="193.5" y="325" width="34.0" height="28" rx="7" fill="#f8fafc" fill-opacity="0.96" stroke="#059669" stroke-opacity="0.12"/><rect x="234.5" y="325" width="34.0" height="28" rx="7" fill="#f8fafc" fill-opacity="0.96" stroke="#059669" stroke-opacity="0.12"/><rect x="275.5" y="325" width="34.0" height="28" rx="7" fill="#f8fafc" fill-opacity="0.96" stroke="#059669" stroke-opacity="0.12"/><rect x="316.5" y="325" width="34.0" height="28" rx="7" fill="#f8fafc" fill-opacity="0.96" stroke="#059669" stroke-opacity="0.12"/><rect x="357.5" y="325" width="34.0" height="28" rx="7" fill="#059669" fill-opacity="0.96" stroke="#059669" stroke-opacity="0.12"/><rect x="398.5" y="325" width="34.0" height="28" rx="7" fill="#f8fafc" fill-opacity="0.96" stroke="#059669" stroke-opacity="0.12"/><rect x="439.5" y="325" width="34.0" height="28" rx="7" fill="#f8fafc" fill-opacity="0.96" stroke="#059669" stroke-opacity="0.12"/><rect x="480.5" y="325" width="34.0" height="28" rx="7" fill="#f8fafc" fill-opacity="0.96" stroke="#059669" stroke-opacity="0.12"/><rect x="521.5" y="325" width="34.0" height="28" rx="7" fill="#f8fafc" fill-opacity="0.96" stroke="#059669" stroke-opacity="0.12"/><rect x="562.5" y="325" width="34.0" height="28" rx="7" fill="#059669" fill-opacity="0.96" stroke="#059669" stroke-opacity="0.12"/><rect x="603.5" y="325" width="34.0" height="28" rx="7" fill="#f8fafc" fill-opacity="0.96" stroke="#059669" stroke-opacity="0.12"/><rect x="644.5" y="325" width="34.0" height="28" rx="7" fill="#f8fafc" fill-opacity="0.96" stroke="#059669" stroke-opacity="0.12"/><rect x="685.5" y="325" width="34.0" height="28" rx="7" fill="#f8fafc" fill-opacity="0.96" stroke="#059669" stroke-opacity="0.12"/><rect x="726.5" y="325" width="34.0" height="28" rx="7" fill="#f8fafc" fill-opacity="0.96" stroke="#059669" stroke-opacity="0.12"/><rect x="767.5" y="325" width="34.0" height="28" rx="7" fill="#059669" fill-opacity="0.96" stroke="#059669" stroke-opacity="0.12"/><rect x="808.5" y="325" width="34.0" height="28" rx="7" fill="#f8fafc" fill-opacity="0.96" stroke="#059669" stroke-opacity="0.12"/><rect x="849.5" y="325" width="34.0" height="28" rx="7" fill="#f8fafc" fill-opacity="0.96" stroke="#059669" stroke-opacity="0.12"/><rect x="890.5" y="325" width="34.0" height="28" rx="7" fill="#f8fafc" fill-opacity="0.96" stroke="#059669" stroke-opacity="0.12"/><rect x="931.5" y="325" width="34.0" height="28" rx="7" fill="#f8fafc" fill-opacity="0.96" stroke="#059669" stroke-opacity="0.12"/><rect x="972.5" y="325" width="34.0" height="28" rx="7" fill="#059669" fill-opacity="0.96" stroke="#059669" stroke-opacity="0.12"/><rect x="214.0" y="365" width="34.0" height="28" rx="7" fill="#f8fafc" fill-opacity="0.96" stroke="#059669" stroke-opacity="0.12"/><rect x="255.0" y="365" width="34.0" height="28" rx="7" fill="#f8fafc" fill-opacity="0.96" stroke="#059669" stroke-opacity="0.12"/><rect x="296.0" y="365" width="34.0" height="28" rx="7" fill="#f8fafc" fill-opacity="0.96" stroke="#059669" stroke-opacity="0.12"/><rect x="337.0" y="365" width="34.0" height="28" rx="7" fill="#059669" fill-opacity="0.96" stroke="#059669" stroke-opacity="0.12"/><rect x="378.0" y="365" width="34.0" height="28" rx="7" fill="#f8fafc" fill-opacity="0.96" stroke="#059669" stroke-opacity="0.12"/><rect x="419.0" y="365" width="34.0" height="28" rx="7" fill="#f8fafc" fill-opacity="0.96" stroke="#059669" stroke-opacity="0.12"/><rect x="460.0" y="365" width="34.0" height="28" rx="7" fill="#f8fafc" fill-opacity="0.96" stroke="#059669" stroke-opacity="0.12"/><rect x="501.0" y="365" width="34.0" height="28" rx="7" fill="#f8fafc" fill-opacity="0.96" stroke="#059669" stroke-opacity="0.12"/><rect x="542.0" y="365" width="34.0" height="28" rx="7" fill="#059669" fill-opacity="0.96" stroke="#059669" stroke-opacity="0.12"/><rect x="583.0" y="365" width="34.0" height="28" rx="7" fill="#f8fafc" fill-opacity="0.96" stroke="#059669" stroke-opacity="0.12"/><rect x="624.0" y="365" width="34.0" height="28" rx="7" fill="#f8fafc" fill-opacity="0.96" stroke="#059669" stroke-opacity="0.12"/><rect x="665.0" y="365" width="34.0" height="28" rx="7" fill="#f8fafc" fill-opacity="0.96" stroke="#059669" stroke-opacity="0.12"/><rect x="706.0" y="365" width="34.0" height="28" rx="7" fill="#f8fafc" fill-opacity="0.96" stroke="#059669" stroke-opacity="0.12"/><rect x="747.0" y="365" width="34.0" height="28" rx="7" fill="#059669" fill-opacity="0.96" stroke="#059669" stroke-opacity="0.12"/><rect x="788.0" y="365" width="34.0" height="28" rx="7" fill="#f8fafc" fill-opacity="0.96" stroke="#059669" stroke-opacity="0.12"/><rect x="829.0" y="365" width="34.0" height="28" rx="7" fill="#f8fafc" fill-opacity="0.96" stroke="#059669" stroke-opacity="0.12"/><rect x="870.0" y="365" width="34.0" height="28" rx="7" fill="#f8fafc" fill-opacity="0.96" stroke="#059669" stroke-opacity="0.12"/><rect x="911.0" y="365" width="34.0" height="28" rx="7" fill="#f8fafc" fill-opacity="0.96" stroke="#059669" stroke-opacity="0.12"/><rect x="952.0" y="365" width="34.0" height="28" rx="7" fill="#059669" fill-opacity="0.96" stroke="#059669" stroke-opacity="0.12"/><rect x="255.0" y="405" width="34.0" height="28" rx="7" fill="#f8fafc" fill-opacity="0.96" stroke="#059669" stroke-opacity="0.12"/><rect x="296.0" y="405" width="34.0" height="28" rx="7" fill="#f8fafc" fill-opacity="0.96" stroke="#059669" stroke-opacity="0.12"/><rect x="337.0" y="405" width="34.0" height="28" rx="7" fill="#059669" fill-opacity="0.96" stroke="#059669" stroke-opacity="0.12"/><rect x="378.0" y="405" width="34.0" height="28" rx="7" fill="#f8fafc" fill-opacity="0.96" stroke="#059669" stroke-opacity="0.12"/><rect x="419.0" y="405" width="34.0" height="28" rx="7" fill="#f8fafc" fill-opacity="0.96" stroke="#059669" stroke-opacity="0.12"/><rect x="460.0" y="405" width="34.0" height="28" rx="7" fill="#f8fafc" fill-opacity="0.96" stroke="#059669" stroke-opacity="0.12"/><rect x="501.0" y="405" width="34.0" height="28" rx="7" fill="#f8fafc" fill-opacity="0.96" stroke="#059669" stroke-opacity="0.12"/><rect x="542.0" y="405" width="34.0" height="28" rx="7" fill="#059669" fill-opacity="0.96" stroke="#059669" stroke-opacity="0.12"/><rect x="583.0" y="405" width="34.0" height="28" rx="7" fill="#f8fafc" fill-opacity="0.96" stroke="#059669" stroke-opacity="0.12"/><rect x="624.0" y="405" width="34.0" height="28" rx="7" fill="#f8fafc" fill-opacity="0.96" stroke="#059669" stroke-opacity="0.12"/><rect x="665.0" y="405" width="34.0" height="28" rx="7" fill="#f8fafc" fill-opacity="0.96" stroke="#059669" stroke-opacity="0.12"/><rect x="706.0" y="405" width="34.0" height="28" rx="7" fill="#f8fafc" fill-opacity="0.96" stroke="#059669" stroke-opacity="0.12"/><rect x="747.0" y="405" width="34.0" height="28" rx="7" fill="#059669" fill-opacity="0.96" stroke="#059669" stroke-opacity="0.12"/><rect x="788.0" y="405" width="34.0" height="28" rx="7" fill="#f8fafc" fill-opacity="0.96" stroke="#059669" stroke-opacity="0.12"/><rect x="829.0" y="405" width="34.0" height="28" rx="7" fill="#f8fafc" fill-opacity="0.96" stroke="#059669" stroke-opacity="0.12"/><rect x="870.0" y="405" width="34.0" height="28" rx="7" fill="#f8fafc" fill-opacity="0.96" stroke="#059669" stroke-opacity="0.12"/><rect x="911.0" y="405" width="95.2" height="28" rx="7" fill="#f8fafc" fill-opacity="0.96" stroke="#059669" stroke-opacity="0.12"/>
  <rect x="441.0" y="448" width="318.0" height="20" rx="10" fill="#e2e8f0" fill-opacity="0.94"/>
  <rect x="1020.0" y="258" width="56" height="208" rx="18" fill="#232c38" fill-opacity="0.66" stroke="white" stroke-opacity="0.08"/>
</g>
<text x="78" y="632" font-size="16" font-family="Arial, sans-serif" fill="#64748b">royal-kludge-rk96</text>
</svg>