<svg xmlns="http://www.w3.org/2000/svg" width="1200" height="700" viewBox="0 0 1200 700">
<defs>
  <linearGradient id="bg" x1="0" y1="0" x2="1" y2="1">
    <stop offset="0%" stop-color="#f7f7f7"/>
    <stop offset="100%" stop-color="#f3e8c5"/>
  </linearGradient>
  <linearGradient id="body" x1="0" y1="0" x2="0" y2="1">
    <stop offset="0%" stop-color="#3d4654"/>
    <stop offset="100%" stop-color="#1e2630"/>
  </linearGradient>
  <linearGradient id="plate" x1="0" y1="0" x2="1" y2="1">
    <stop offset="0%" stop-color="#4c5565"/>
    <stop offset="100%" stop-color="#2c3542"/>
  </linearGradient>
  <filter id="shadow" x="-20%" y="-20%" width="140%" height="160%">
    <feDropShadow dx="0" dy="18" stdDeviation="22" flood-color="#0b1120" flood-opacity="0.22"/>
  </filter>
</defs>
<rect width="1200" height="700" rx="32" fill="url(#bg)"/>
<rect x="34" y="34" width="1132" height="632" rx="28" fill="white" fill-opacity="0.35"/>
<text x="78" y="84" font-size="15" font-family="Arial, sans-serif" fill="#334155" letter-spacing="3">CORSAIR</text>
<rect x="78" y="102" width="34" height="34" rx="10" fill="#d97706" fill-opacity="0.18" stroke="#d97706" stroke-opacity="0.25"/>
<text x="95" y="124" text-anchor="middle" font-size="15" font-family="Arial, sans-serif" font-weight="700" fill="#1f2937">C</text>
<text x="126" y="126" font-size="34" font-family="Arial, sans-serif" font-weight="700" fill="#111827">K55 RGB Pro</text>
<text x="78" y="164" font-size="18" font-family="Arial, sans-serif" fill="#475569">Full-size keyboard • KBcompare premium local image</text>
<g filter="url(#shadow)">
  <rect x="40" y="240" width="1120" height="260" rx="34" fill="url(#body)"/>
  <rect x="64" y="256" width="1072" height="208" rx="28" fill="url(#plate)"/>
<rect x="183.5" y="285" width="33.0" height="28" rx="7" fill="#d97706" fill-opacity="0.96" stroke="#d97706" stroke-opacity="0.12"/><rect x="223.5" y="285" width="33.0" height="28" rx="7" fill="#f8fafc" fill-opacity="0.96" stroke="#d97706" stroke-opacity="0.12"/><rect x="263.5" y="285" width="33.0" height="28" rx="7" fill="#f8fafc" fill-opacity="0.96" stroke="#d97706" stroke-opacity="0.12"/><rect x="303.5" y="285" width="33.0" height="28" rx="7" fill="#f8fafc" fill-opacity="0.96" stroke="#d97706" stroke-opacity="0.12"/><rect x="343.5" y="285" width="33.0" height="28" rx="7" fill="#f8fafc" fill-opacity="0.96" stroke="#d97706" stroke-opacity="0.12"/><rect x="383.5" y="285" width="33.0" height="28" rx="7" fill="#d97706" fill-opacity="0.96" stroke="#d97706" stroke-opacity="0.12"/><rect x="423.5" y="285" width="33.0" height="28" rx="7" fill="#f8fafc" fill-opacity="0.96" stroke="#d97706" stroke-opacity="0.12"/><rect x="463.5" y="285" width="33.0" height="28" rx="7" fill="#f8fafc" fill-opacity="0.96" stroke="#d97706" stroke-opacity="0.12"/><rect x="503.5" y="285" width="33.0" height="28" rx="7" fill="#f8fafc" fill-opacity="0.96" stroke="#d97706" stroke-opacity="0.12"/><rect x="543.5" y="285" width="33.0" height="28" rx="7" fill="#f8fafc" fill-opacity="0.96" stroke="#d97706" stroke-opacity="0.12"/><rect x="583.5" y="285" width="33.0" height="28" rx="7" fill="#d97706" fill-opacity="0.96" stroke="#d97706" stroke-opacity="0.12"/><rect x="623.5" y="285" width="33.0" height="28" rx="7" fill="#f8fafc" fill-opacity="0.96" stroke="#d97706" stroke-opacity="0.12"/><rect x="663.5" y="285" width="33.0" height="28" rx="7" fill="#f8fafc" fill-opacity="0.96" stroke="#d97706" stroke-opacity="0.12"/><rect x="703.5" y="285" width="33.0" height="28" rx="7" fill="#f8fafc" fill-opacity="0.96" stroke="#d97706" stroke-opacity="0.12"/><rect x="743.5" y="285" width="33.0" height="28" rx="7" fill="#f8fafc" fill-opacity="0.96" stroke="#d97706" stroke-opacity="0.12"/><rect x="783.5" y="285" width="33.0" height="28" rx="7" fill="#d97706" fill-opacity="0.96" stroke="#d97706" stroke-opacity="0.12"/><rect x="823.5" y="285" width="33.0" height="28" rx="7" fill="#f8fafc" fill-opacity="0.96" stroke="#d97706" stroke-opacity="0.12"/><rect x="863.5" y="285" width="33.0" height="28" rx="7" fill="#f8fafc" fill-opacity="0.96" stroke="#d97706" stroke-opacity="0.12"/><rect x="903.5" y="285" width="33.0" height="28" rx="7" fill="#f8fafc" fill-opacity="0.96" stroke="#d97706" stroke-opacity="0.12"/><rect x="943.5" y="285" width="33.0" height="28" rx="7" fill="#f8fafc" fill-opacity="0.96" stroke="#d97706" stroke-opacity="0.12"/><rect x="983.5" y="285" width="33.0" height="28" rx="7" fill="#d97706" fill-opacity="0.96" stroke="#d97706" stroke-opacity="0.12"/><rect x="183.5" y="325" width="33.0" height="28" rx="7" fill="#f8fafc" fill-opacity="0.96" stroke="#d97706" stroke-opacity="0.12"/><rect x="223.5" y="325" width="33.0" height="28" rx="7" fill="#f8fafc" fill-opacity="0.96" stroke="#d97706" stroke-opacity="0.12"/><rect x="263.5" y="325" width="33.0" height="28" rx="7" fill="#f8fafc" fill-opacity="0.96" stroke="#d97706" stroke-opacity="0.12"/><rect x="303.5" y="325" width="33.0" height="28" rx="7" fill="#f8fafc" fill-opacity="0.96" stroke="#d97706" stroke-opacity="0.12"/><rect x="343.5" y="325" width="33.0" height="28" rx="7" fill="#d97706" fill-opacity="0.96" stroke="#d97706" stroke-opacity="0.12"/><rect x="383.5" y="325" width="33.0" height="28" rx="7" fill="#f8fafc" fill-opacity="0.96" stroke="#d97706" stroke-opacity="0.12"/><rect x="423.5" y="325" width="33.0" height="28" rx="7" fill="#f8fafc" fill-opacity="0.96" stroke="#d97706" stroke-opacity="0.12"/><rect x="463.5" y="325" width="33.0" height="28" rx="7" fill="#f8fafc" fill-opacity="0.96" stroke="#d97706" stroke-opacity="0.12"/><rect x="503.5" y="325" width="33.0" height="28" rx="7" fill="#f8fafc" fill-opacity="0.96" stroke="#d97706" stroke-opacity="0.12"/><rect x="543.5" y="325" width="33.0" height="28" rx="7" fill="#d97706" fill-opacity="0.96" stroke="#d97706" stroke-opacity="0.12"/><rect x="583.5" y="325" width="33.0" height="28" rx="7" fill="#f8fafc" fill-opacity="0.96" stroke="#d97706" stroke-opacity="0.12"/><rect x="623.5" y="325" width="33.0" height="28" rx="7" fill="#f8fafc" fill-opacity="0.96" stroke="#d97706" stroke-opacity="0.12"/><rect x="663.5" y="325" width="33.0" height="28" rx="7" fill="#f8fafc" fill-opacity="0.96" stroke="#d97706" stroke-opacity="0.12"/><rect x="703.5" y="325" width="33.0" height="28" rx="7" fill="#f8fafc" fill-opacity="0.96" stroke="#d97706" stroke-opacity="0.12"/><rect x="743.5" y="325" width="33.0" height="28" rx="7" fill="#d97706" fill-opacity="0.96" stroke="#d97706" stroke-opacity="0.12"/><rect x="783.5" y="325" width="33.0" height="28" rx="7" fill="#f8fafc" fill-opacity="0.96" stroke="#d97706" stroke-opacity="0.12"/><rect x="823.5" y="325" width="33.0" height="28" rx="7" fill="#f8fafc" fill-opacity="0.96" stroke="#d97706" stroke-opacity="0.12"/><rect x="863.5" y="325" width="33.0" height="28" rx="7" fill="#f8fafc" fill-opacity="0.96" stroke="#d97706" stroke-opacity="0.12"/><rect x="903.5" y="325" width="33.0" height="28" rx="7" fill="#f8fafc" fill-opacity="0.96" stroke="#d97706" stroke-opacity="0.12"/><rect x="943.5" y="325" width="33.0" height="28" rx="7" fill="#d97706" fill-opacity="0.96" stroke="#d97706" stroke-opacity="0.12"/><rect x="983.5" y="325" width="33.0" height="28" rx="7" fill="#f8fafc" fill-opacity="0.96" stroke="#d97706" stroke-opacity="0.12"/><rect x="203.5" y="365" width="33.0" height="28" rx="7" fill="#f8fafc" fill-opacity="0.96" stroke="#d97706" stroke-opacity="0.12"/><rect x="243.5" y="365" width="33.0" height="28" rx="7" fill="#f8fafc" fill-opacity="0.96" stroke="#d97706" stroke-opacity="0.12"/><rect x="283.5" y="365" width="33.0" height="28" rx="7" fill="#f8fafc" fill-opacity="0.96" stroke="#d97706" stroke-opacity="0.12"/><rect x="323.5" y="365" width="33.0" height="28" rx="7" fill="#d97706" fill-opacity="0.96" stroke="#d97706" stroke-opacity="0.12"/><rect x="363.5" y="365" width="33.0" height="28" rx="7" fill="#f8fafc" fill-opacity="0.96" stroke="#d97706" stroke-opacity="0.12"/><rect x="403.5" y="365" width="33.0" height="28" rx="7" fill="#f8fafc" fill-opacity="0.96" stroke="#d97706" stroke-opacity="0.12"/><rect x="443.5" y="365" width="33.0" height="28" rx="7" fill="#f8fafc" fill-opacity="0.96" stroke="#d97706" stroke-opacity="0.12"/><rect x="483.5" y="365" width="33.0" height="28" rx="7" fill="#f8fafc" fill-opacity="0.96" stroke="#d97706" stroke-opacity="0.12"/><rect x="523.5" y="365" width="33.0" height="28" rx="7" fill="#d97706" fill-opacity="0.96" stroke="#d97706" stroke-opacity="0.12"/><rect x="563.5" y="365" width="33.0" height="28" rx="7" fill="#f8fafc" fill-opacity="0.96" stroke="#d97706" stroke-opacity="0.12"/><rect x="603.5" y="365" width="33.0" height="28" rx="7" fill="#f8fafc" fill-opacity="0.96" stroke="#d97706" stroke-opacity="0.12"/><rect x="643.5" y="365" width="33.0" height="28" rx="7" fill="#f8fafc" fill-opacity="0.96" stroke="#d97706" stroke-opacity="0.12"/><rect x="683.5" y="365" width="33.0" height="28" rx="7" fill="#f8fafc" fill-opacity="0.96" stroke="#d97706" stroke-opacity="0.12"/><rect x="723.5" y="365" width="33.0" height="28" rx="7" fill="#d97706" fill-opacity="0.96" stroke="#d97706" stroke-opacity="0.12"/><rect x="763.5" y="365" width="33.0" height="28" rx="7" fill="#f8fafc" fill-opacity="0.96" stroke="#d97706" stroke-opacity="0.12"/><rect x="803.5" y="365" width="33.0" height="28" rx="7" fill="#f8fafc" fill-opacity="0.96" stroke="#d97706" stroke-opacity="0.12"/><rect x="843.5" y="365" width="33.0" height="28" rx="7" fill="#f8fafc" fill-opacity="0.96" stroke="#d97706" stroke-opacity="0.12"/><rect x="883.5" y="365" width="33.0" height="28" rx="7" fill="#f8fafc" fill-opacity="0.96" stroke="#d97706" stroke-opacity="0.12"/><rect x="923.5" y="365" width="33.0" height="28" rx="7" fill="#d97706" fill-opacity="0.96" stroke="#d97706" stroke-opacity="0.12"/><rect x="963.5" y="365" width="33.0" height="28" rx="7" fill="#f8fafc" fill-opacity="0.96" stroke="#d97706" stroke-opacity="0.12"/><rect x="243.5" y="405" width="33.0" height="28" rx="7" fill="#f8fafc" fill-opacity="0.96" stroke="#d97706" stroke-opacity="0.12"/><rect x="283.5" y="405" width="33.0" height="28" rx="7" fill="#f8fafc" fill-opacity="0.96" stroke="#d97706" stroke-opacity="0.12"/><rect x="323.5" y="405" width="33.0" height="28" rx="7" fill="#d97706" fill-opacity="0.96" stroke="#d97706" stroke-opacity="0.12"/><rect x="363.5" y="405" width="33.0" height="28" rx="7" fill="#f8fafc" fill-opacity="0.96" stroke="#d97706" stroke-opacity="0.12"/><rect x="403.5" y="405" width="33.0" height="28" rx="7" fill="#f8fafc" fill-opacity="0.96" stroke="#d97706" stroke-opacity="0.12"/><rect x="443.5" y="405" width="33.0" height="28" rx="7" fill="#f8fafc" fill-opacity="0.96" stroke="#d97706" stroke-opacity="0.12"/><rect x="483.5" y="405" width="33.0" height="28" rx="7" fill="#f8fafc" fill-opacity="0.96" stroke="#d97706" stroke-opacity="0.12"/><rect x="523.5" y="405" width="33.0" height="28" rx="7" fill="#d97706" fill-opacity="0.96" stroke="#d97706" stroke-opacity="0.12"/><rect x="563.5" y="405" width="33.0" height="28" rx="7" fill="#f8fafc" fill-opacity="0.96" stroke="#d97706" stroke-opacity="0.12"/><rect x="603.5" y="405" width="33.0" height="28" rx="7" fill="#f8fafc" fill-opacity="0.96" stroke="#d97706" stroke-opacity="0.12"/><rect x="643.5" y="405" width="33.0" height="28" rx="7" fill="#f8fafc" fill-opacity="0.96" stroke="#d97706" stroke-opacity="0.12"/><rect x="683.5" y="405" width="33.0" height="28" rx="7" fill="#f8fafc" fill-opacity="0.96" stroke="#d97706" stroke-opacity="0.12"/><rect x="723.5" y="405" width="33.0" height="28" rx="7" fill="#d97706" fill-opacity="0.96" stroke="#d97706" stroke-opacity="0.12"/><rect x="763.5" y="405" width="33.0" height="28" rx="7" fill="#f8fafc" fill-opacity="0.96" stroke="#d97706" stroke-opacity="0.12"/><rect x="803.5" y="405" width="33.0" height="28" rx="7" fill="#f8fafc" fill-opacity="0.96" stroke="#d97706" stroke-opacity="0.12"/><rect x="843.5" y="405" width="33.0" height="28" rx="7" fill="#f8fafc" fill-opacity="0.96" stroke="#d97706" stroke-opacity="0.12"/><rect x="883.5" y="405" width="33.0" height="28" rx="7" fill="#f8fafc" fill-opacity="0.96" stroke="#d97706" stroke-opacity="0.12"/><rect x="923.5" y="405" width="92.4" height="28" rx="7" fill="#d97706" fill-opacity="0.96" stroke="#d97706" stroke-opacity="0.12"/>
  <rect x="432.0" y="448" width="336.0" height="20" rx="10" fill="#e2e8f0" fill-opacity="0.94"/>
  <rect x="1050.0" y="258" width="56" height="208" rx="18" fill="#232c38" fill-opacity="0.66" stroke="white" stroke-opacity="0.08"/>
</g>
<text x="78" y="632" font-size="16" font-family="Arial, sans-serif" fill="#64748b">corsair-k55-rgb-pro</text>
</svg>