<svg xmlns="http://www.w3.org/2000/svg" width="1200" height="700" viewBox="0 0 1200 700">
<defs>
  <linearGradient id="bg" x1="0" y1="0" x2="1" y2="1">
    <stop offset="0%" stop-color="#f7f7f8"/>
    <stop offset="100%" stop-color="#e2e8f0"/>
  </linearGradient>
  <linearGradient id="body" x1="0" y1="0" x2="0" y2="1">
    <stop offset="0%" stop-color="#3d4654"/>
    <stop offset="100%" stop-color="#1e2630"/>
  </linearGradient>
  <linearGradient id="plate" x1="0" y1="0" x2="1" y2="1">
    <stop offset="0%" stop-color="#4c5565"/>
    <stop offset="100%" stop-color="#2c3542"/>
  </linearGradient>
  <filter id="shadow" x="-20%" y="-20%" width="140%" height="160%">
    <feDropShadow dx="0" dy="18" stdDeviation="22" flood-color="#0b1120" flood-opacity="0.22"/>
  </filter>
</defs>
<rect width="1200" height="700" rx="32" fill="url(#bg)"/>
<rect x="34" y="34" width="1132" height="632" rx="28" fill="white" fill-opacity="0.35"/>
<text x="78" y="84" font-size="15" font-family="Arial, sans-serif" fill="#334155" letter-spacing="3">KEYCHRON</text>
<rect x="78" y="102" width="34" height="34" rx="10" fill="#64748b" fill-opacity="0.18" stroke="#64748b" stroke-opacity="0.25"/>
<text x="95" y="124" text-anchor="middle" font-size="15" font-family="Arial, sans-serif" font-weight="700" fill="#1f2937">K</text>
<text x="126" y="126" font-size="34" font-family="Arial, sans-serif" font-weight="700" fill="#111827">Q1 Max</text>
<text x="78" y="164" font-size="18" font-family="Arial, sans-serif" fill="#475569">75% keyboard • KBcompare premium local image</text>
<g filter="url(#shadow)">
  <rect x="140" y="240" width="920" height="260" rx="34" fill="url(#body)"/>
  <rect x="164" y="256" width="872" height="208" rx="28" fill="url(#plate)"/>
<rect x="246.5" y="285" width="35.0" height="28" rx="7" fill="#64748b" fill-opacity="0.96" stroke="#64748b" stroke-opacity="0.12"/><rect x="288.5" y="285" width="35.0" height="28" rx="7" fill="#f8fafc" fill-opacity="0.96" stroke="#64748b" stroke-opacity="0.12"/><rect x="330.5" y="285" width="35.0" height="28" rx="7" fill="#f8fafc" fill-opacity="0.96" stroke="#64748b" stroke-opacity="0.12"/><rect x="372.5" y="285" width="35.0" height="28" rx="7" fill="#f8fafc" fill-opacity="0.96" stroke="#64748b" stroke-opacity="0.12"/><rect x="414.5" y="285" width="35.0" height="28" rx="7" fill="#f8fafc" fill-opacity="0.96" stroke="#64748b" stroke-opacity="0.12"/><rect x="456.5" y="285" width="35.0" height="28" rx="7" fill="#64748b" fill-opacity="0.96" stroke="#64748b" stroke-opacity="0.12"/><rect x="498.5" y="285" width="35.0" height="28" rx="7" fill="#f8fafc" fill-opacity="0.96" stroke="#64748b" stroke-opacity="0.12"/><rect x="540.5" y="285" width="35.0" height="28" rx="7" fill="#f8fafc" fill-opacity="0.96" stroke="#64748b" stroke-opacity="0.12"/><rect x="582.5" y="285" width="35.0" height="28" rx="7" fill="#f8fafc" fill-opacity="0.96" stroke="#64748b" stroke-opacity="0.12"/><rect x="624.5" y="285" width="35.0" height="28" rx="7" fill="#f8fafc" fill-opacity="0.96" stroke="#64748b" stroke-opacity="0.12"/><rect x="666.5" y="285" width="35.0" height="28" rx="7" fill="#64748b" fill-opacity="0.96" stroke="#64748b" stroke-opacity="0.12"/><rect x="708.5" y="285" width="35.0" height="28" rx="7" fill="#f8fafc" fill-opacity="0.96" stroke="#64748b" stroke-opacity="0.12"/><rect x="750.5" y="285" width="35.0" height="28" rx="7" fill="#f8fafc" fill-opacity="0.96" stroke="#64748b" stroke-opacity="0.12"/><rect x="792.5" y="285" width="35.0" height="28" rx="7" fill="#f8fafc" fill-opacity="0.96" stroke="#64748b" stroke-opacity="0.12"/><rect x="834.5" y="285" width="35.0" height="28" rx="7" fill="#f8fafc" fill-opacity="0.96" stroke="#64748b" stroke-opacity="0.12"/><rect x="876.5" y="285" width="35.0" height="28" rx="7" fill="#64748b" fill-opacity="0.96" stroke="#64748b" stroke-opacity="0.12"/><rect x="918.5" y="285" width="35.0" height="28" rx="7" fill="#f8fafc" fill-opacity="0.96" stroke="#64748b" stroke-opacity="0.12"/><rect x="246.5" y="325" width="35.0" height="28" rx="7" fill="#f8fafc" fill-opacity="0.96" stroke="#64748b" stroke-opacity="0.12"/><rect x="288.5" y="325" width="35.0" height="28" rx="7" fill="#f8fafc" fill-opacity="0.96" stroke="#64748b" stroke-opacity="0.12"/><rect x="330.5" y="325" width="35.0" height="28" rx="7" fill="#f8fafc" fill-opacity="0.96" stroke="#64748b" stroke-opacity="0.12"/><rect x="372.5" y="325" width="35.0" height="28" rx="7" fill="#f8fafc" fill-opacity="0.96" stroke="#64748b" stroke-opacity="0.12"/><rect x="414.5" y="325" width="35.0" height="28" rx="7" fill="#64748b" fill-opacity="0.96" stroke="#64748b" stroke-opacity="0.12"/><rect x="456.5" y="325" width="35.0" height="28" rx="7" fill="#f8fafc" fill-opacity="0.96" stroke="#64748b" stroke-opacity="0.12"/><rect x="498.5" y="325" width="35.0" height="28" rx="7" fill="#f8fafc" fill-opacity="0.96" stroke="#64748b" stroke-opacity="0.12"/><rect x="540.5" y="325" width="35.0" height="28" rx="7" fill="#f8fafc" fill-opacity="0.96" stroke="#64748b" stroke-opacity="0.12"/><rect x="582.5" y="325" width="35.0" height="28" rx="7" fill="#f8fafc" fill-opacity="0.96" stroke="#64748b" stroke-opacity="0.12"/><rect x="624.5" y="325" width="35.0" height="28" rx="7" fill="#64748b" fill-opacity="0.96" stroke="#64748b" stroke-opacity="0.12"/><rect x="666.5" y="325" width="35.0" height="28" rx="7" fill="#f8fafc" fill-opacity="0.96" stroke="#64748b" stroke-opacity="0.12"/><rect x="708.5" y="325" width="35.0" height="28" rx="7" fill="#f8fafc" fill-opacity="0.96" stroke="#64748b" stroke-opacity="0.12"/><rect x="750.5" y="325" width="35.0" height="28" rx="7" fill="#f8fafc" fill-opacity="0.96" stroke="#64748b" stroke-opacity="0.12"/><rect x="792.5" y="325" width="35.0" height="28" rx="7" fill="#f8fafc" fill-opacity="0.96" stroke="#64748b" stroke-opacity="0.12"/><rect x="834.5" y="325" width="35.0" height="28" rx="7" fill="#64748b" fill-opacity="0.96" stroke="#64748b" stroke-opacity="0.12"/><rect x="876.5" y="325" width="35.0" height="28" rx="7" fill="#f8fafc" fill-opacity="0.96" stroke="#64748b" stroke-opacity="0.12"/><rect x="918.5" y="325" width="35.0" height="28" rx="7" fill="#f8fafc" fill-opacity="0.96" stroke="#64748b" stroke-opacity="0.12"/><rect x="267.5" y="365" width="35.0" height="28" rx="7" fill="#f8fafc" fill-opacity="0.96" stroke="#64748b" stroke-opacity="0.12"/><rect x="309.5" y="365" width="35.0" height="28" rx="7" fill="#f8fafc" fill-opacity="0.96" stroke="#64748b" stroke-opacity="0.12"/><rect x="351.5" y="365" width="35.0" height="28" rx="7" fill="#f8fafc" fill-opacity="0.96" stroke="#64748b" stroke-opacity="0.12"/><rect x="393.5" y="365" width="35.0" height="28" rx="7" fill="#64748b" fill-opacity="0.96" stroke="#64748b" stroke-opacity="0.12"/><rect x="435.5" y="365" width="35.0" height="28" rx="7" fill="#f8fafc" fill-opacity="0.96" stroke="#64748b" stroke-opacity="0.12"/><rect x="477.5" y="365" width="35.0" height="28" rx="7" fill="#f8fafc" fill-opacity="0.96" stroke="#64748b" stroke-opacity="0.12"/><rect x="519.5" y="365" width="35.0" height="28" rx="7" fill="#f8fafc" fill-opacity="0.96" stroke="#64748b" stroke-opacity="0.12"/><rect x="561.5" y="365" width="35.0" height="28" rx="7" fill="#f8fafc" fill-opacity="0.96" stroke="#64748b" stroke-opacity="0.12"/><rect x="603.5" y="365" width="35.0" height="28" rx="7" fill="#64748b" fill-opacity="0.96" stroke="#64748b" stroke-opacity="0.12"/><rect x="645.5" y="365" width="35.0" height="28" rx="7" fill="#f8fafc" fill-opacity="0.96" stroke="#64748b" stroke-opacity="0.12"/><rect x="687.5" y="365" width="35.0" height="28" rx="7" fill="#f8fafc" fill-opacity="0.96" stroke="#64748b" stroke-opacity="0.12"/><rect x="729.5" y="365" width="35.0" height="28" rx="7" fill="#f8fafc" fill-opacity="0.96" stroke="#64748b" stroke-opacity="0.12"/><rect x="771.5" y="365" width="35.0" height="28" rx="7" fill="#f8fafc" fill-opacity="0.96" stroke="#64748b" stroke-opacity="0.12"/><rect x="813.5" y="365" width="35.0" height="28" rx="7" fill="#64748b" fill-opacity="0.96" stroke="#64748b" stroke-opacity="0.12"/><rect x="855.5" y="365" width="35.0" height="28" rx="7" fill="#f8fafc" fill-opacity="0.96" stroke="#64748b" stroke-opacity="0.12"/><rect x="897.5" y="365" width="35.0" height="28" rx="7" fill="#f8fafc" fill-opacity="0.96" stroke="#64748b" stroke-opacity="0.12"/><rect x="309.5" y="405" width="35.0" height="28" rx="7" fill="#f8fafc" fill-opacity="0.96" stroke="#64748b" stroke-opacity="0.12"/><rect x="351.5" y="405" width="35.0" height="28" rx="7" fill="#f8fafc" fill-opacity="0.96" stroke="#64748b" stroke-opacity="0.12"/><rect x="393.5" y="405" width="35.0" height="28" rx="7" fill="#64748b" fill-opacity="0.96" stroke="#64748b" stroke-opacity="0.12"/><rect x="435.5" y="405" width="35.0" height="28" rx="7" fill="#f8fafc" fill-opacity="0.96" stroke="#64748b" stroke-opacity="0.12"/><rect x="477.5" y="405" width="35.0" height="28" rx="7" fill="#f8fafc" fill-opacity="0.96" stroke="#64748b" stroke-opacity="0.12"/><rect x="519.5" y="405" width="35.0" height="28" rx="7" fill="#f8fafc" fill-opacity="0.96" stroke="#64748b" stroke-opacity="0.12"/><rect x="561.5" y="405" width="35.0" height="28" rx="7" fill="#f8fafc" fill-opacity="0.96" stroke="#64748b" stroke-opacity="0.12"/><rect x="603.5" y="405" width="35.0" height="28" rx="7" fill="#64748b" fill-opacity="0.96" stroke="#64748b" stroke-opacity="0.12"/><rect x="645.5" y="405" width="35.0" height="28" rx="7" fill="#f8fafc" fill-opacity="0.96" stroke="#64748b" stroke-opacity="0.12"/><rect x="687.5" y="405" width="35.0" height="28" rx="7" fill="#f8fafc" fill-opacity="0.96" stroke="#64748b" stroke-opacity="0.12"/><rect x="729.5" y="405" width="35.0" height="28" rx="7" fill="#f8fafc" fill-opacity="0.96" stroke="#64748b" stroke-opacity="0.12"/><rect x="771.5" y="405" width="35.0" height="28" rx="7" fill="#f8fafc" fill-opacity="0.96" stroke="#64748b" stroke-opacity="0.12"/><rect x="813.5" y="405" width="35.0" height="28" rx="7" fill="#64748b" fill-opacity="0.96" stroke="#64748b" stroke-opacity="0.12"/><rect x="855.5" y="405" width="98.0" height="28" rx="7" fill="#f8fafc" fill-opacity="0.96" stroke="#64748b" stroke-opacity="0.12"/>
  <rect x="462.0" y="448" width="276.0" height="20" rx="10" fill="#e2e8f0" fill-opacity="0.94"/>
  <rect x="950.0" y="258" width="56" height="208" rx="18" fill="#232c38" fill-opacity="0.66" stroke="white" stroke-opacity="0.08"/>
</g>
<text x="78" y="632" font-size="16" font-family="Arial, sans-serif" fill="#64748b">keychron-q1-max</text>
</svg>