<svg xmlns="http://www.w3.org/2000/svg" width="1200" height="700" viewBox="0 0 1200 700">
<defs>
  <linearGradient id="g" x1="0" y1="0" x2="1" y2="1">
    <stop offset="0%" stop-color="#0b1220"/>
    <stop offset="100%" stop-color="#10b981"/>
  </linearGradient>
</defs>
<rect width="1200" height="700" rx="42" fill="url(#g)"/>
<rect x="58" y="58" width="1084" height="584" rx="34" fill="rgba(255,255,255,0.03)" stroke="rgba(255,255,255,0.14)"/>
<rect x="84" y="110" width="54" height="54" rx="16" fill="white" fill-opacity="0.12"/>
<text x="111" y="147" text-anchor="middle" font-size="26" font-family="Arial, sans-serif" font-weight="700" fill="white">RK</text>
<text x="170" y="145" font-size="28" font-family="Arial, sans-serif" fill="white" opacity="0.88">ROYAL KLUDGE</text>
<text x="84" y="214" font-size="64" font-family="Arial, sans-serif" font-weight="700" fill="white">S98</text>
<text x="84" y="258" font-size="24" font-family="Arial, sans-serif" fill="white" opacity="0.82">75% keyboard • local image asset</text>
<rect x="170" y="330" width="860" height="190" rx="34" fill="#0b1220" fill-opacity="0.72" stroke="rgba(255,255,255,0.18)" stroke-width="4"/>
<rect x="360" y="210" width="34" height="26" rx="6" fill="white" fill-opacity="0.09" stroke="white" stroke-opacity="0.12"/><rect x="402" y="210" width="34" height="26" rx="6" fill="white" fill-opacity="0.09" stroke="white" stroke-opacity="0.12"/><rect x="444" y="210" width="34" height="26" rx="6" fill="white" fill-opacity="0.09" stroke="white" stroke-opacity="0.12"/><rect x="486" y="210" width="34" height="26" rx="6" fill="white" fill-opacity="0.09" stroke="white" stroke-opacity="0.12"/><rect x="528" y="210" width="34" height="26" rx="6" fill="white" fill-opacity="0.09" stroke="white" stroke-opacity="0.12"/><rect x="570" y="210" width="34" height="26" rx="6" fill="white" fill-opacity="0.09" stroke="white" stroke-opacity="0.12"/><rect x="612" y="210" width="34" height="26" rx="6" fill="white" fill-opacity="0.09" stroke="white" stroke-opacity="0.12"/><rect x="654" y="210" width="34" height="26" rx="6" fill="white" fill-opacity="0.09" stroke="white" stroke-opacity="0.12"/><rect x="696" y="210" width="34" height="26" rx="6" fill="white" fill-opacity="0.09" stroke="white" stroke-opacity="0.12"/><rect x="738" y="210" width="34" height="26" rx="6" fill="white" fill-opacity="0.09" stroke="white" stroke-opacity="0.12"/><rect x="780" y="210" width="34" height="26" rx="6" fill="white" fill-opacity="0.09" stroke="white" stroke-opacity="0.12"/><rect x="822" y="210" width="34" height="26" rx="6" fill="white" fill-opacity="0.09" stroke="white" stroke-opacity="0.12"/><rect x="864" y="210" width="34" height="26" rx="6" fill="white" fill-opacity="0.09" stroke="white" stroke-opacity="0.12"/><rect x="906" y="210" width="34" height="26" rx="6" fill="white" fill-opacity="0.09" stroke="white" stroke-opacity="0.12"/><rect x="948" y="210" width="34" height="26" rx="6" fill="white" fill-opacity="0.09" stroke="white" stroke-opacity="0.12"/><rect x="990" y="210" width="34" height="26" rx="6" fill="white" fill-opacity="0.09" stroke="white" stroke-opacity="0.12"/><rect x="1032" y="210" width="34" height="26" rx="6" fill="white" fill-opacity="0.09" stroke="white" stroke-opacity="0.12"/><rect x="1074" y="210" width="92" height="26" rx="6" fill="white" fill-opacity="0.09" stroke="white" stroke-opacity="0.12"/><rect x="400" y="210" width="34" height="26" rx="6" fill="white" fill-opacity="0.09" stroke="white" stroke-opacity="0.12"/><rect x="442" y="210" width="34" height="26" rx="6" fill="white" fill-opacity="0.09" stroke="white" stroke-opacity="0.12"/><rect x="484" y="210" width="34" height="26" rx="6" fill="white" fill-opacity="0.09" stroke="white" stroke-opacity="0.12"/><rect x="526" y="210" width="34" height="26" rx="6" fill="white" fill-opacity="0.09" stroke="white" stroke-opacity="0.12"/><rect x="568" y="210" width="34" height="26" rx="6" fill="white" fill-opacity="0.09" stroke="white" stroke-opacity="0.12"/><rect x="610" y="210" width="34" height="26" rx="6" fill="white" fill-opacity="0.09" stroke="white" stroke-opacity="0.12"/><rect x="652" y="210" width="34" height="26" rx="6" fill="white" fill-opacity="0.09" stroke="white" stroke-opacity="0.12"/><rect x="694" y="210" width="34" height="26" rx="6" fill="white" fill-opacity="0.09" stroke="white" stroke-opacity="0.12"/><rect x="736" y="210" width="34" height="26" rx="6" fill="white" fill-opacity="0.09" stroke="white" stroke-opacity="0.12"/><rect x="778" y="210" width="34" height="26" rx="6" fill="white" fill-opacity="0.09" stroke="white" stroke-opacity="0.12"/><rect x="820" y="210" width="34" height="26" rx="6" fill="white" fill-opacity="0.09" stroke="white" stroke-opacity="0.12"/><rect x="862" y="210" width="34" height="26" rx="6" fill="white" fill-opacity="0.09" stroke="white" stroke-opacity="0.12"/><rect x="904" y="210" width="34" height="26" rx="6" fill="white" fill-opacity="0.09" stroke="white" stroke-opacity="0.12"/><rect x="946" y="210" width="34" height="26" rx="6" fill="white" fill-opacity="0.09" stroke="white" stroke-opacity="0.12"/><rect x="988" y="210" width="34" height="26" rx="6" fill="white" fill-opacity="0.09" stroke="white" stroke-opacity="0.12"/><rect x="1030" y="210" width="34" height="26" rx="6" fill="white" fill-opacity="0.09" stroke="white" stroke-opacity="0.12"/><rect x="1072" y="210" width="92" height="26" rx="6" fill="white" fill-opacity="0.09" stroke="white" stroke-opacity="0.12"/><rect x="440" y="220" width="34" height="26" rx="6" fill="white" fill-opacity="0.09" stroke="white" stroke-opacity="0.12"/><rect x="482" y="220" width="34" height="26" rx="6" fill="white" fill-opacity="0.09" stroke="white" stroke-opacity="0.12"/><rect x="524" y="220" width="34" height="26" rx="6" fill="white" fill-opacity="0.09" stroke="white" stroke-opacity="0.12"/><rect x="566" y="220" width="34" height="26" rx="6" fill="white" fill-opacity="0.09" stroke="white" stroke-opacity="0.12"/><rect x="608" y="220" width="34" height="26" rx="6" fill="white" fill-opacity="0.09" stroke="white" stroke-opacity="0.12"/><rect x="650" y="220" width="34" height="26" rx="6" fill="white" fill-opacity="0.09" stroke="white" stroke-opacity="0.12"/><rect x="692" y="220" width="34" height="26" rx="6" fill="white" fill-opacity="0.09" stroke="white" stroke-opacity="0.12"/><rect x="734" y="220" width="34" height="26" rx="6" fill="white" fill-opacity="0.09" stroke="white" stroke-opacity="0.12"/><rect x="776" y="220" width="34" height="26" rx="6" fill="white" fill-opacity="0.09" stroke="white" stroke-opacity="0.12"/><rect x="818" y="220" width="34" height="26" rx="6" fill="white" fill-opacity="0.09" stroke="white" stroke-opacity="0.12"/><rect x="860" y="220" width="34" height="26" rx="6" fill="white" fill-opacity="0.09" stroke="white" stroke-opacity="0.12"/><rect x="902" y="220" width="34" height="26" rx="6" fill="white" fill-opacity="0.09" stroke="white" stroke-opacity="0.12"/><rect x="944" y="220" width="34" height="26" rx="6" fill="white" fill-opacity="0.09" stroke="white" stroke-opacity="0.12"/><rect x="986" y="220" width="34" height="26" rx="6" fill="white" fill-opacity="0.09" stroke="white" stroke-opacity="0.12"/><rect x="1028" y="220" width="34" height="26" rx="6" fill="white" fill-opacity="0.09" stroke="white" stroke-opacity="0.12"/><rect x="1070" y="220" width="92" height="26" rx="6" fill="white" fill-opacity="0.09" stroke="white" stroke-opacity="0.12"/><rect x="480" y="245" width="34" height="26" rx="6" fill="white" fill-opacity="0.09" stroke="white" stroke-opacity="0.12"/><rect x="522" y="245" width="34" height="26" rx="6" fill="white" fill-opacity="0.09" stroke="white" stroke-opacity="0.12"/><rect x="564" y="245" width="34" height="26" rx="6" fill="white" fill-opacity="0.09" stroke="white" stroke-opacity="0.12"/><rect x="606" y="245" width="34" height="26" rx="6" fill="white" fill-opacity="0.09" stroke="white" stroke-opacity="0.12"/><rect x="648" y="245" width="34" height="26" rx="6" fill="white" fill-opacity="0.09" stroke="white" stroke-opacity="0.12"/><rect x="690" y="245" width="34" height="26" rx="6" fill="white" fill-opacity="0.09" stroke="white" stroke-opacity="0.12"/><rect x="732" y="245" width="34" height="26" rx="6" fill="white" fill-opacity="0.09" stroke="white" stroke-opacity="0.12"/><rect x="774" y="245" width="34" height="26" rx="6" fill="white" fill-opacity="0.09" stroke="white" stroke-opacity="0.12"/><rect x="816" y="245" width="34" height="26" rx="6" fill="white" fill-opacity="0.09" stroke="white" stroke-opacity="0.12"/><rect x="858" y="245" width="34" height="26" rx="6" fill="white" fill-opacity="0.09" stroke="white" stroke-opacity="0.12"/><rect x="900" y="245" width="34" height="26" rx="6" fill="white" fill-opacity="0.09" stroke="white" stroke-opacity="0.12"/><rect x="942" y="245" width="34" height="26" rx="6" fill="white" fill-opacity="0.09" stroke="white" stroke-opacity="0.12"/><rect x="984" y="245" width="34" height="26" rx="6" fill="white" fill-opacity="0.09" stroke="white" stroke-opacity="0.12"/><rect x="1026" y="245" width="92" height="26" rx="6" fill="white" fill-opacity="0.09" stroke="white" stroke-opacity="0.12"/>
<rect x="420" y="525" width="260" height="22" rx="10" fill="white" fill-opacity="0.12"/>
<text x="84" y="615" font-size="22" font-family="Arial, sans-serif" fill="white" opacity="0.72">KBcompare • royal-kludge-s98</text>
</svg>